<svg id="visual" viewBox="0 0 900 600" width="900" height="600" xmlns="http://www.w3.org/2000/svg" xmlns:xlink="http://www.w3.org/1999/xlink" version="1.1"><g transform="translate(433.33900160850084 298.66482096930935)"><path d="M200.7 -240.9C240.8 -205.6 240.5 -124 239.1 -53.8C237.6 16.4 234.8 75.2 205.5 111.6C176.1 148.1 120.1 162.1 61.5 194.5C3 226.8 -58.2 277.4 -96.5 263.9C-134.7 250.5 -150.1 173 -169.4 111.4C-188.7 49.8 -212 4.2 -204.9 -36.1C-197.8 -76.4 -160.3 -111.4 -121.1 -146.8C-81.8 -182.2 -40.9 -218.1 19.7 -241.6C80.3 -265.1 160.7 -276.2 200.7 -240.9" fill="#f7b57f"></path></g></svg>